<svg width="179" height="40" viewBox="0 0 179 40" fill="none" xmlns="http://www.w3.org/2000/svg">
<g clip-path="url(#clip0_110_1154)">
<path fill-rule="evenodd" clip-rule="evenodd" d="M25.3979 8.07098L26.7564 7.75134C26.9962 7.67143 27.156 7.83125 27.156 8.07098V11.0277C27.156 11.2674 26.9962 11.5071 26.7564 11.5871L25.3979 11.9067C25.1582 11.9866 24.9984 11.8268 24.9984 11.5871V8.63036C24.9984 8.39062 25.1582 8.15089 25.3979 8.07098ZM25.6377 14.304L26.9962 13.9844C27.2359 13.9045 27.3957 14.0643 27.3957 14.304V17.2607C27.3957 17.5004 27.2359 17.7402 26.9962 17.8201L25.6377 18.1397C25.3979 18.2196 25.2381 18.0598 25.2381 17.8201V14.8634C25.1582 14.6237 25.3979 14.3839 25.6377 14.304ZM30.2725 13.425L31.2314 13.1853C31.4712 13.1054 31.631 13.2652 31.631 13.5049L31.7109 16.0621C31.7109 16.3018 31.5511 16.5415 31.3113 16.6214L30.3524 16.8612C30.1127 16.9411 29.9529 16.7812 29.9529 16.5415V13.9045C29.793 13.6647 30.0328 13.425 30.2725 13.425ZM25.6377 21.0165L26.9962 20.6969C27.2359 20.617 27.3957 20.7768 27.3957 21.0165V23.9732C27.3957 24.2129 27.2359 24.4527 26.9962 24.5326L25.6377 25.092C25.3979 25.1719 25.2381 25.0121 25.2381 24.7723V21.5759C25.1582 21.3362 25.3979 21.0964 25.6377 21.0165ZM30.2725 19.8978L31.2314 19.658C31.4712 19.5781 31.631 19.7379 31.631 19.9777V22.375C31.631 22.6147 31.4712 22.8545 31.2314 22.9344L30.2725 23.254C30.0328 23.3339 29.8729 23.1741 29.8729 22.9344V20.4571C29.8729 20.2174 30.0328 19.9777 30.2725 19.8978ZM19.6444 0C10.7743 0 3.02296 4.55491 1.02519 11.0277C-3.13017 24.2129 5.81983 36.1996 19.3247 39.1562C19.3247 36.1996 19.3247 34.921 19.2448 32.7634L6.93858 26.6103C6.69885 26.4504 6.45912 26.1308 6.45912 25.8112C6.37921 24.8522 7.25822 24.7723 7.65778 25.0121L19.2448 29.6469C19.2448 26.1308 19.1649 24.8522 19.1649 23.1741L8.85642 17.9799C8.61669 17.8201 8.37696 17.5004 8.37696 17.1808C8.37696 16.4616 8.93633 16.142 9.57562 16.3817L19.1649 20.2174C19.085 16.3817 19.1649 19.1786 19.2448 13.425L11.7332 9.42946C11.4935 9.26964 11.2537 8.95 11.2537 8.63036C11.2537 7.99107 11.8131 7.59152 12.772 7.91116L19.3247 10.5482C19.3247 9.42946 19.3247 8.07098 19.4046 6.39286C19.4046 6.07321 19.6444 5.91339 19.8841 5.91339H21.0828C21.4024 5.91339 21.5622 6.15312 21.5622 6.39286C21.6421 14.7036 21.8819 22.0554 21.8819 30.3661C22.4412 30.2862 23.0805 30.2063 23.56 30.1263C32.3502 28.6879 39.0627 22.5348 39.0627 15.183C38.9828 6.87232 30.2725 0 19.6444 0Z" fill="#009640"/>
</g>
<g clip-path="url(#clip1_110_1154)">
<path d="M51.0422 32.2539C51.6764 32.2539 52.0728 32.023 52.3899 31.6382L51.9142 31.1764C51.6764 31.4072 51.4385 31.5612 51.0422 31.5612C50.4872 31.5612 50.0115 31.0994 50.0115 30.4836C50.0115 29.9449 50.4079 29.4061 50.9629 29.4061C51.3593 29.4061 51.5971 29.56 51.8349 29.7909L52.3106 29.2521C51.9935 28.9443 51.5971 28.7134 50.9629 28.7134C49.9323 28.7134 49.2188 29.4831 49.2188 30.4067C49.298 31.4842 50.0115 32.2539 51.0422 32.2539ZM53.8169 32.1769H54.6097V29.56H55.7196V28.9443H52.707V29.56H53.8169V32.1769ZM56.2745 33.1775H57.0673V31.7151C57.3051 32.023 57.6223 32.2539 58.1772 32.2539C58.97 32.2539 59.7628 31.6382 59.7628 30.5606C59.7628 29.4831 58.97 28.8673 58.1772 28.8673C57.6223 28.8673 57.3051 29.1752 57.0673 29.4831V28.9443H56.2745V33.1775ZM58.0186 31.5612C57.4637 31.5612 57.0673 31.1764 57.0673 30.4836C57.0673 29.8679 57.543 29.4061 58.0186 29.4061C58.5736 29.4061 58.97 29.7909 58.97 30.4836C58.97 31.1764 58.5736 31.5612 58.0186 31.5612ZM62.1412 32.2539C63.1718 32.2539 63.9646 31.4842 63.9646 30.5606C63.9646 29.637 63.1718 28.8673 62.1412 28.8673C61.1105 28.8673 60.3178 29.637 60.3178 30.5606C60.397 31.4842 61.1105 32.2539 62.1412 32.2539ZM62.2204 31.6382C61.5862 31.6382 61.1898 31.1764 61.1898 30.5606C61.1898 29.9449 61.5862 29.4831 62.2204 29.4831C62.8547 29.4831 63.251 29.9449 63.251 30.5606C63.1718 31.0994 62.7753 31.6382 62.2204 31.6382ZM64.7573 32.1769H65.4708L67.0564 30.0218V32.1769H67.7699V28.8673H67.0564C66.5015 29.56 66.0258 30.3297 65.4708 31.0224V28.8673H64.7573V32.1769ZM69.514 32.1769H70.3068V29.56H71.4167V28.9443H68.4834V29.56H69.5933V32.1769H69.514ZM73.5572 32.2539C74.1914 32.2539 74.5879 32.023 74.905 31.6382L74.4293 31.2533C74.1915 31.4842 73.8744 31.6382 73.4779 31.6382C73.0023 31.6382 72.6059 31.3303 72.5266 30.7915H74.9842C74.9842 30.7915 74.9842 30.6375 74.9842 30.5606C74.9842 29.637 74.4293 28.7903 73.3987 28.7903C72.4473 28.7903 71.7338 29.56 71.7338 30.4836C71.8131 31.5612 72.6059 32.2539 73.5572 32.2539ZM72.6059 30.3297C72.6851 29.7909 73.0023 29.4831 73.4779 29.4831C73.9536 29.4831 74.2707 29.8679 74.35 30.3297H72.6059ZM75.8563 32.1769C76.5698 32.1769 77.0455 31.8691 77.0455 29.4831H78.0761V32.1H78.8689V28.7903H76.3319C76.3319 31.2533 76.0941 31.4842 75.6978 31.4842C75.6185 31.4842 75.5392 31.4842 75.4599 31.4842L75.3806 32.1C75.4599 32.1769 75.6978 32.1769 75.8563 32.1769ZM79.8202 32.1769H81.4058C82.1986 32.1769 82.6742 31.7921 82.6742 31.0994C82.6742 30.4067 82.1193 30.0988 81.3265 30.0988H80.5337V28.9443H79.7409V32.1769H79.8202ZM80.613 31.5612V30.6375H81.3265C81.7229 30.6375 81.9608 30.7915 81.9608 31.0994C81.9608 31.4072 81.7229 31.5612 81.3265 31.5612H80.613ZM83.3877 32.1769H84.1805V30.8685H85.6868V32.1769H86.4796V28.8673H85.6868V30.2528H84.1805V28.9443H83.3877V32.1769ZM89.0165 32.2539C90.0472 32.2539 90.8399 31.4842 90.8399 30.5606C90.8399 29.637 90.0472 28.8673 89.0165 28.8673C87.9859 28.8673 87.1931 29.637 87.1931 30.5606C87.1931 31.4842 87.9859 32.2539 89.0165 32.2539ZM89.0165 31.6382C88.3823 31.6382 87.9859 31.1764 87.9859 30.5606C87.9859 29.9449 88.3823 29.4831 89.0165 29.4831C89.6507 29.4831 90.0472 29.9449 90.0472 30.5606C90.0472 31.0994 89.6507 31.6382 89.0165 31.6382ZM91.4741 30.6375H93.3768V29.8679H91.4741V30.6375ZM94.1696 32.1769H94.9624V29.56H96.3894V32.1769H97.1822V28.8673H94.1696V32.1769ZM98.2128 33.1775H99.0056V31.7151C99.2435 32.023 99.5605 32.2539 100.116 32.2539C100.908 32.2539 101.701 31.6382 101.701 30.5606C101.701 29.4831 100.908 28.8673 100.116 28.8673C99.5605 28.8673 99.2435 29.1752 99.0056 29.4831V28.9443H98.2128V33.1775ZM99.8776 31.5612C99.3227 31.5612 98.9263 31.1764 98.9263 30.4836C98.9263 29.8679 99.402 29.4061 99.8776 29.4061C100.433 29.4061 100.829 29.7909 100.829 30.4836C100.908 31.1764 100.433 31.5612 99.8776 31.5612ZM104.079 32.2539C105.11 32.2539 105.903 31.4842 105.903 30.5606C105.903 29.637 105.11 28.8673 104.079 28.8673C103.049 28.8673 102.256 29.637 102.256 30.5606C102.256 31.4842 103.049 32.2539 104.079 32.2539ZM104.079 31.6382C103.445 31.6382 103.049 31.1764 103.049 30.5606C103.049 29.9449 103.445 29.4831 104.079 29.4831C104.714 29.4831 105.11 29.9449 105.11 30.5606C105.11 31.0994 104.714 31.6382 104.079 31.6382ZM106.616 32.1769H107.409V30.0218L108.44 31.4842L109.47 30.0218V32.1769H110.263V28.8673H109.47L108.44 30.4067L107.409 28.8673H106.616V32.1769ZM111.294 32.1769H112.8C113.593 32.1769 114.068 31.7921 114.068 31.0994C114.068 30.4067 113.514 30.0988 112.721 30.0988H112.007V28.9443H111.214V32.1769H111.294ZM112.007 31.5612V30.6375H112.642C113.038 30.6375 113.276 30.7915 113.276 31.0994C113.276 31.4072 113.038 31.5612 112.642 31.5612H112.007ZM114.623 32.1769H115.416V28.8673H114.623V32.1769ZM116.368 32.1769H121.204V28.8673H120.411V31.4842H119.142V28.8673H118.35V31.4842H117.081V28.8673H116.288V32.1769H116.368ZM122.076 32.1769C122.789 32.1769 123.265 31.8691 123.265 29.4831H124.295V32.1H125.088V28.7903H122.551C122.551 31.2533 122.313 31.4842 121.917 31.4842C121.838 31.4842 121.759 31.4842 121.679 31.4842L121.6 32.1C121.759 32.1769 121.917 32.1769 122.076 32.1769ZM127.625 32.2539C128.259 32.2539 128.655 32.023 128.973 31.6382L128.497 31.2533C128.259 31.4842 127.942 31.6382 127.546 31.6382C127.07 31.6382 126.674 31.3303 126.594 30.7915H129.052C129.052 30.7915 129.052 30.6375 129.052 30.5606C129.052 29.637 128.497 28.7903 127.467 28.7903C126.515 28.7903 125.802 29.56 125.802 30.4836C125.881 31.5612 126.674 32.2539 127.625 32.2539ZM126.674 30.3297C126.753 29.7909 127.07 29.4831 127.546 29.4831C128.022 29.4831 128.339 29.8679 128.418 30.3297H126.674ZM129.924 32.1769H130.717V30.8685H132.223V32.1769H133.016V28.8673H132.223V30.2528H130.717V28.9443H129.924V32.1769ZM133.967 32.1769H134.761V30.8685H136.266V32.1769H137.06V28.8673H136.266V30.2528H134.761V28.9443H133.967V32.1769ZM140.785 32.1769V30.2528C140.785 29.4061 140.31 28.8673 139.279 28.8673C138.724 28.8673 138.328 28.9443 138.011 29.1752L138.249 29.7909C138.566 29.637 138.803 29.56 139.2 29.56C139.755 29.56 139.992 29.7909 139.992 30.2528C139.755 30.1757 139.438 30.0988 139.041 30.0988C138.249 30.0988 137.693 30.4836 137.693 31.1764C137.693 31.8691 138.249 32.1769 138.882 32.1769C139.359 32.1769 139.755 31.946 139.992 31.7151V32.1H140.785V32.1769ZM139.992 31.0224C139.992 31.4072 139.596 31.7151 139.12 31.7151C138.724 31.7151 138.486 31.5612 138.486 31.2533C138.486 30.9454 138.803 30.7146 139.279 30.7146C139.596 30.7146 139.834 30.7915 140.071 30.8685V31.0224H139.992ZM141.34 32.1769H142.212L143.005 31.0994H143.719V32.1769H144.511V28.8673H142.847C141.975 28.8673 141.499 29.3291 141.499 29.9449C141.499 30.4836 141.816 30.7915 142.291 30.9454L141.34 32.1769ZM142.926 30.4836C142.529 30.4836 142.291 30.3297 142.291 29.9449C142.291 29.637 142.529 29.4831 142.926 29.4831H143.719V30.4836H142.926ZM147.445 32.1769H148.238V31.4072L148.792 30.8685L149.823 32.2539H150.775L149.347 30.3297L150.616 28.9443H149.744L148.238 30.4836V28.9443H147.445V32.1769ZM152.836 32.2539C153.866 32.2539 154.659 31.4842 154.659 30.5606C154.659 29.637 153.866 28.8673 152.836 28.8673C151.805 28.8673 151.012 29.637 151.012 30.5606C151.012 31.4842 151.805 32.2539 152.836 32.2539ZM152.836 31.6382C152.201 31.6382 151.805 31.1764 151.805 30.5606C151.805 29.9449 152.201 29.4831 152.836 29.4831C153.47 29.4831 153.866 29.9449 153.866 30.5606C153.866 31.0994 153.47 31.6382 152.836 31.6382ZM155.373 32.1769H156.086V30.0218L157.116 31.4842L158.147 30.0218V32.1769H158.94V28.8673H158.147L157.116 30.4067L156.086 28.8673H155.294V32.1769H155.373ZM159.971 32.1769H160.764V29.56H162.191V32.1769H162.983V28.8673H159.971V32.1769ZM166.789 32.1769V30.2528C166.789 29.4061 166.313 28.8673 165.282 28.8673C164.727 28.8673 164.331 28.9443 164.014 29.1752L164.252 29.7909C164.569 29.637 164.807 29.56 165.203 29.56C165.758 29.56 165.996 29.7909 165.996 30.2528C165.758 30.1757 165.441 30.0988 165.044 30.0988C164.252 30.0988 163.697 30.4836 163.697 31.1764C163.697 31.8691 164.252 32.1769 164.886 32.1769C165.362 32.1769 165.758 31.946 165.996 31.7151V32.1H166.789V32.1769ZM166.075 31.0224C166.075 31.4072 165.679 31.7151 165.203 31.7151C164.807 31.7151 164.569 31.5612 164.569 31.2533C164.569 30.9454 164.886 30.7146 165.362 30.7146C165.679 30.7146 165.917 30.7915 166.154 30.8685V31.0224H166.075ZM167.74 32.1769H168.532V30.8685H170.039V32.1769H170.831V28.8673H170.039V30.2528H168.532V28.9443H167.74V32.1769ZM171.704 32.1769H172.418L174.003 30.0218V32.1769H174.717V28.8673H174.003C173.448 29.56 172.972 30.3297 172.418 31.0224V28.8673H171.704V32.1769ZM175.43 32.1769H176.302L177.095 31.0994H177.808V32.1769H178.601V28.8673H176.937C176.064 28.8673 175.589 29.3291 175.589 29.9449C175.589 30.4836 175.906 30.7915 176.381 30.9454L175.43 32.1769ZM177.016 30.4836C176.619 30.4836 176.381 30.3297 176.381 29.9449C176.381 29.637 176.619 29.4831 177.016 29.4831H177.808V30.4836H177.016Z" fill="#5A5A5A"/>
<path d="M87.0345 6.77759H84.6562V9.08663H87.0345V6.77759Z" fill="#5A5A5A"/>
<path d="M91.0034 6.77759H88.625V9.08663H91.0034V6.77759Z" fill="#5A5A5A"/>
<path d="M177.337 19.1694V10.3181H168.457C167.982 16.7065 167.903 18.3227 167.11 19.1694H166V24.3263H169.092V22.1712H175.592V24.3263H178.684V19.1694H177.337ZM171.47 13.2429H174.086V19.1694H170.439C170.994 18.2458 171.312 16.5525 171.47 13.2429Z" fill="#5A5A5A"/>
<path d="M57.2302 16.0138C58.1023 15.3981 58.6572 14.6284 58.6572 13.5509C58.6572 11.2418 56.5167 10.0104 54.2176 10.0104C51.8393 10.0104 49.5402 11.3188 49.5402 13.7818H52.7906C52.7906 13.0121 53.4249 12.6273 54.0591 12.6273C54.6933 12.6273 55.2483 13.0121 55.2483 13.7048C55.2483 14.3205 54.7726 14.7824 53.9005 14.7824H53.1077V17.3992H54.1384C55.0104 17.3992 55.5654 17.861 55.5654 18.5538C55.5654 19.2465 54.9312 19.7853 54.2176 19.7853C53.5041 19.7853 52.8699 19.3235 52.8699 18.4768H49.4609C49.4609 21.0937 51.6807 22.5561 54.2176 22.5561C56.6753 22.5561 59.0536 21.3246 59.0536 18.8617C58.9743 17.6302 58.4194 16.6296 57.2302 16.0138ZM64.0482 19.3235V17.5532H68.0913V14.8593H64.0482V13.166H68.567V10.3182H60.7185V22.1713H68.7256V19.3235H64.0482ZM73.0066 10.3182L72.1346 17.3223C71.976 18.6307 71.4211 19.2465 70.3904 19.2465H69.8355V22.2482H70.8661C73.6409 22.2482 75.1471 20.7089 75.5436 17.4763L75.9399 13.32H78.3183V22.1713H81.6479V10.3182H73.0066ZM87.356 19.3235V17.5532H91.3992V14.8593H87.356V13.166H91.7956V10.3182H83.9471V22.1713H91.9542V19.3235H87.356ZM100.992 10.3182V14.6284H97.3451V10.3182H93.9361V22.1713H97.3451V17.6302H100.992V22.1713H104.401V10.3182H100.992ZM111.932 13.7818H110.03V10.3182H106.7V22.1713H111.853C114.469 22.1713 116.372 20.401 116.372 17.9381C116.451 15.4751 114.549 13.7818 111.932 13.7818ZM117.561 10.3182V22.1713H120.97V10.3182H117.561ZM111.536 19.4004H110.109V16.6296H111.536C112.487 16.6296 113.121 17.1684 113.121 18.015C113.042 18.7847 112.408 19.4004 111.536 19.4004ZM125.965 9.16371H131.593V6.93164H125.965V9.16371ZM131.435 10.3182L126.599 16.7066V10.3182H123.269V22.1713H125.885L130.721 15.8599V22.1713H134.051V10.3182H131.435ZM146.101 22.4792C149.352 22.4792 151.809 20.324 152.285 17.2453H148.876C148.559 18.5538 147.449 19.4004 146.101 19.4004C144.357 19.4004 143.088 18.092 143.088 16.2448C143.088 14.3975 144.357 13.0891 146.101 13.0891C147.37 13.0891 148.4 13.8587 148.876 15.0902H152.285C151.809 12.0885 149.273 10.0104 146.101 10.0104C142.376 10.0104 139.6 12.7042 139.6 16.2448C139.6 19.7853 142.376 22.4792 146.101 22.4792ZM161.481 22.1713H165.208L160.292 10.3182H156.963L152.205 22.1713H155.853L156.566 20.2471H160.926L161.481 22.1713ZM160.054 17.7071H157.359L158.707 14.0127L160.054 17.7071Z" fill="#5A5A5A"/>
</g>
<defs>
<clipPath id="clip0_110_1154">
<rect width="39.1562" height="39.1562" fill="white"/>
</clipPath>
<clipPath id="clip1_110_1154">
<rect width="130.254" height="27.1696" fill="white" transform="translate(48.7461 6.39282)"/>
</clipPath>
</defs>
</svg>
