<svg width="258" height="32" viewBox="0 0 258 32" fill="none" xmlns="http://www.w3.org/2000/svg">
<path d="M13.5445 22.1386C12.3302 23.0727 10.929 23.5397 9.43447 23.5397C7.65967 23.5397 6.1651 22.9793 5.04417 21.8584C3.92324 20.7374 3.36278 19.2429 3.36278 17.3746C3.36278 15.5064 3.92324 14.0119 4.95076 12.8909C6.07169 11.77 7.37944 11.2095 9.06083 11.2095C10.5554 11.2095 11.8631 11.5832 12.9841 12.4239L14.3852 10.182C13.0775 8.96769 11.3027 8.40723 9.06083 8.40723C6.25851 8.40723 4.01666 9.24792 2.42868 10.9293C0.840695 12.6107 0 14.7591 0 17.3746C0 20.0835 0.840695 22.3254 2.52209 23.9134C4.20348 25.5948 6.35192 26.4355 9.06083 26.4355C11.3027 26.4355 13.5445 25.5948 14.6655 24.4738L13.4511 22.1386H13.5445ZM25.034 22.9793C24.1933 23.6332 23.1658 24.0068 21.8581 24.0068C20.0833 24.0068 18.6821 23.0727 18.4953 21.3913H26.622C26.7154 21.0177 26.8088 20.4572 26.8088 19.8033C26.8088 18.3087 26.2484 17.001 25.2209 16.0669C24.1933 15.1328 22.8856 14.5723 21.391 14.5723C19.6162 14.5723 18.1217 15.1328 17.0941 16.2537C15.9732 17.3746 15.4127 18.7758 15.4127 20.4572C15.4127 22.232 15.9732 23.6332 17.0941 24.7541C18.2151 25.875 19.7096 26.4355 21.4844 26.4355C23.2592 26.4355 24.6604 25.9684 25.7813 25.0343L24.9406 22.9793H25.034ZM21.2976 17.001C22.8856 17.001 23.9131 18.0285 23.9131 19.4297H18.4019C18.6821 17.8417 19.7096 17.001 21.391 17.001H21.2976ZM29.0507 26.1552C29.4243 26.1552 30.0782 26.1552 31.1991 26.2486C32.3201 26.3421 33.0673 26.3421 33.6278 26.3421C37.1774 26.3421 38.9522 25.2211 38.9522 22.9793C38.9522 21.5781 38.1115 20.7374 36.5235 20.3638V20.2704C37.7379 20.0835 38.672 19.056 38.672 17.7483C38.672 15.7867 36.9906 14.7591 33.5344 14.7591C32.1332 14.7591 29.7046 14.8526 29.1441 14.8526V26.1552H29.0507ZM33.7212 21.3913C35.1224 21.3913 35.8697 21.8584 35.8697 22.699C35.8697 23.5397 35.1224 24.0068 33.8146 24.0068C33.7212 24.0068 33.0673 24.0068 31.9464 23.9134V21.3913H33.7212ZM33.7212 17.0944C34.9356 17.0944 35.496 17.4681 35.496 18.3087C35.496 19.1494 34.7487 19.6165 33.7212 19.6165H31.853V17.0944C32.2267 17.0944 32.8805 17.001 33.6278 17.001L33.7212 17.0944ZM50.4417 22.9793C49.601 23.6332 48.5735 24.0068 47.2658 24.0068C45.491 24.0068 44.0898 23.0727 43.903 21.3913H52.0297C52.1231 21.0177 52.2165 20.4572 52.2165 19.8033C52.2165 18.3087 51.6561 17.001 50.6285 16.0669C49.601 15.1328 48.2933 14.5723 46.7987 14.5723C45.0239 14.5723 43.5293 15.1328 42.5018 16.2537C41.3809 17.3746 40.9138 18.7758 40.9138 20.4572C40.9138 22.232 41.4743 23.6332 42.5952 24.7541C43.7162 25.875 45.2107 26.4355 46.9855 26.4355C48.7603 26.4355 50.1615 25.9684 51.2824 25.0343L50.4417 22.9793ZM46.7053 17.001C48.2933 17.001 49.3208 18.0285 49.3208 19.4297H43.8096C44.1832 17.8417 45.1173 17.001 46.7987 17.001H46.7053ZM57.3541 31.106V25.7816C58.008 26.1552 58.8487 26.3421 59.9696 26.3421C61.7444 26.3421 63.1456 25.7816 64.2665 24.5673C65.3874 23.4463 65.9479 21.9518 65.9479 20.177C65.9479 18.4956 65.4808 17.0944 64.5467 16.0669C63.6126 14.946 62.3983 14.4789 60.8103 14.4789C59.4091 14.4789 58.008 15.0394 57.3541 15.8801V14.7591H54.4584V31.0126H57.3541V31.106ZM59.9696 17.2812C61.8378 17.2812 62.9587 18.589 62.9587 20.3638C62.9587 22.3254 61.7444 23.7266 59.7828 23.7266C58.8487 23.7266 58.1014 23.5397 57.4475 23.0727V18.4956C58.1948 17.6549 59.0355 17.2812 60.063 17.2812H59.9696ZM79.2122 26.1552V14.8526H76.3165V19.1494H71.3657V14.8526H68.47V26.1552H71.3657V21.8584H76.3165V26.1552H79.2122ZM83.3222 17.7483C84.4432 17.1878 85.4707 17.001 86.3114 17.001C87.8994 17.001 88.4598 17.9351 88.4598 19.8967C87.806 19.4297 86.9653 19.1494 85.9377 19.1494C83.5091 19.1494 81.8277 20.4572 81.8277 22.7925C81.8277 24.9409 83.2288 26.2486 85.3773 26.2486C86.8718 26.2486 87.9928 25.7816 88.7401 24.7541V26.0618H91.2621V19.1494C91.2621 16.0669 89.9544 14.4789 86.7784 14.4789C85.3773 14.4789 83.9761 14.8526 82.7618 15.5998L83.5091 17.7483H83.3222ZM86.218 23.82C85.2839 23.82 84.63 23.3529 84.63 22.5122C84.63 21.5781 85.3773 21.1111 86.4048 21.1111C87.2455 21.1111 87.8994 21.2979 88.3664 21.6715V22.7925C87.8994 23.4463 87.1521 23.82 86.218 23.82ZM99.5757 14.8526C95.7459 14.8526 93.9711 16.4405 93.9711 18.8692C93.9711 20.5506 94.9986 21.7649 96.1195 22.1386L93.1304 26.1552H96.3997L98.735 22.7925H100.323V26.1552H103.219V14.8526H99.5757ZM97.0536 19.056C97.0536 18.1219 97.8009 17.3746 99.1086 17.3746H100.416V20.644H98.9218C97.9877 20.644 97.0536 19.9901 97.0536 19.056Z" fill="#2B2B2B"/>
<path d="M153.661 26.155V17.0942L160.853 26.155H164.777L157.117 16.814L164.309 8.68726H160.573L153.661 17.0008V8.68726H150.578V26.2484H153.661V26.155ZM166.458 24.7539C167.579 25.8748 169.073 26.4353 170.942 26.4353C172.81 26.4353 174.211 25.8748 175.425 24.7539C176.546 23.6329 177.107 22.2318 177.107 20.457C177.107 18.6822 176.546 17.281 175.425 16.2535C174.304 15.1326 172.81 14.5721 170.942 14.5721C169.073 14.5721 167.579 15.1326 166.458 16.2535C165.337 17.3744 164.777 18.7756 164.777 20.457C164.777 22.2318 165.337 23.6329 166.458 24.7539ZM167.859 20.457C167.859 18.5888 169.167 17.281 170.942 17.281C172.716 17.281 174.024 18.5888 174.024 20.457C174.024 22.4186 172.716 23.7264 170.942 23.7264C169.167 23.7264 167.859 22.3252 167.859 20.457ZM182.431 26.0616V19.1492L185.887 23.3527H185.981L189.344 19.1492V26.0616H192.239V14.7589H189.717L186.074 19.4295L182.244 14.7589H179.629V26.0616H182.525H182.431ZM205.877 26.0616V14.7589H195.322V26.0616H198.218V17.4679H202.981V26.0616H205.877ZM209.987 17.6547C211.108 17.0942 212.136 16.9074 212.976 16.9074C214.564 16.9074 215.125 17.8415 215.125 19.8031C214.471 19.3361 213.63 19.0558 212.603 19.0558C210.174 19.0558 208.493 20.3636 208.493 22.6988C208.493 24.8473 209.894 26.155 212.042 26.155C213.537 26.155 214.751 25.688 215.405 24.6605V25.9682H217.927V19.0558C217.927 15.9733 216.619 14.3853 213.443 14.3853C212.042 14.3853 210.641 14.7589 209.427 15.5062L210.174 17.6547H209.987ZM212.883 23.7264C211.949 23.7264 211.295 23.2593 211.295 22.4186C211.295 21.4845 212.042 21.0175 213.07 21.0175C213.91 21.0175 214.564 21.2043 215.031 21.5779V22.6988C214.564 23.3527 213.817 23.7264 212.883 23.7264ZM231.378 25.9682V14.6655H228.483V18.9624H223.532V14.6655H220.636V25.9682H223.532V21.6713H228.483V25.9682H231.378ZM242.774 18.869V25.9682H245.67V14.6655H242.774L237.543 21.7647V14.6655H234.648V25.9682H237.543L242.774 18.869ZM254.357 14.7589C250.527 14.7589 248.753 16.3469 248.753 18.7756C248.753 20.457 249.78 21.6713 250.901 22.045L247.912 26.0616H251.181L253.517 22.6988H255.105V26.0616H258V14.7589H254.357ZM251.835 18.9624C251.835 18.0283 252.582 17.281 253.89 17.281H255.198V20.5504H253.703C252.769 20.5504 251.835 19.8965 251.835 18.9624Z" fill="#2B2B2B"/>
<path fill-rule="evenodd" clip-rule="evenodd" d="M132.829 26.7154L127.785 0L142.824 26.7154L137.78 31.7596L132.829 26.7154Z" fill="#2B2B2B"/>
<path fill-rule="evenodd" clip-rule="evenodd" d="M122.836 26.7156L127.787 21.6714L132.831 26.7156L127.787 31.6663L122.836 26.7156Z" fill="#2B2B2B"/>
<path fill-rule="evenodd" clip-rule="evenodd" d="M122.834 26.7154L127.785 0L112.746 26.7154L117.79 31.7596L122.834 26.7154Z" fill="#2B2B2B"/>
</svg>
