<svg width="16" height="18" viewBox="0 0 16 18" fill="none" xmlns="http://www.w3.org/2000/svg">
<path d="M0.679108 17.2796C0.54897 17.2796 0.4375 17.1681 0.4375 17.038V6.14881C0.4375 3.08269 2.92748 0.611328 5.97498 0.611328C9.02249 0.611328 11.5125 3.1013 11.5125 6.14881V13.3029C11.5125 14.3993 12.4044 15.2726 13.4821 15.2726C14.5785 15.2726 15.4518 14.3807 15.4518 13.3029L15.4519 2.39522C15.4519 2.26508 15.5634 2.15361 15.6936 2.15361C15.8237 2.15361 15.9352 2.26508 15.9352 2.39522V13.3029C15.9352 14.6409 14.8389 15.7372 13.5009 15.7372C12.163 15.7372 11.0667 14.6409 11.0667 13.3029L11.0666 6.14881C11.0666 3.36149 8.79955 1.07588 5.99365 1.07588C3.20632 1.07588 0.920716 3.34291 0.920716 6.14881V17.0565C0.902051 17.168 0.790578 17.2796 0.679108 17.2796V17.2796Z" fill="#FF5C51"/>
</svg>
