<svg width="22" height="35" viewBox="0 0 22 35" fill="none" xmlns="http://www.w3.org/2000/svg">
<path d="M11.1503 0C6.09659 0 1.99986 4.02758 1.99986 8.99569C1.99986 13.9639 6.09659 17.9918 11.1503 17.9918C16.204 17.9918 20.3007 13.9639 20.3007 8.99569C20.3007 4.02758 16.204 0 11.1503 0ZM11.1503 12.7146C9.06127 12.7146 7.36771 11.0495 7.36771 8.99582C7.36771 6.94212 9.06127 5.2772 11.1503 5.2772C13.2393 5.2772 14.9329 6.94212 14.9329 8.99582C14.9329 11.0495 13.2393 12.7146 11.1503 12.7146Z" fill="white"/>
<path d="M14.38 25.1497C18.0433 24.4161 20.2385 22.7106 20.3547 22.6191C21.4266 21.7739 21.5988 20.2345 20.7392 19.1806C19.8796 18.1268 18.3138 17.9575 17.2416 18.8025C17.219 18.8205 14.8776 20.5862 11.0252 20.5888C7.17299 20.5862 4.78213 18.8205 4.75947 18.8025C3.68726 17.9575 2.12151 18.1268 1.26196 19.1806C0.402282 20.2345 0.57448 21.7739 1.64643 22.6191C1.76415 22.7119 4.04999 24.4618 7.81595 25.1782L2.56739 30.5706C1.61356 31.543 1.64224 33.0915 2.63142 34.0292C3.11423 34.4868 3.7365 34.7143 4.35825 34.7143C5.01011 34.7143 5.66132 34.4639 6.14949 33.9661L11.0254 28.8598L16.3937 33.9992C17.3664 34.9539 18.9415 34.9523 19.9123 33.9965C20.8832 33.0405 20.882 31.4918 19.9096 30.5374L14.38 25.1497Z" fill="white"/>
</svg>
