<svg width="33" height="20" viewBox="0 0 33 20" fill="none" xmlns="http://www.w3.org/2000/svg">
<path d="M1.77536 0.265625C2.87362 0.265625 4.54717 0.265625 5.48854 0.265625C5.95922 0.265625 6.32531 0.579415 6.48221 0.997801C6.95289 2.35756 7.99886 5.33856 9.20172 7.37819C10.823 10.0454 11.8689 11.0391 12.5488 10.9345C13.2287 10.7776 13.0195 8.99944 13.0195 7.58739C13.0195 6.17533 13.1764 3.76961 12.4965 2.67135L11.4505 1.1547C11.1891 0.788608 11.4505 0.317923 11.8689 0.317923H17.8309C18.4062 0.317923 18.8769 0.788608 18.8769 1.36389V8.94714C18.8769 8.94714 19.1384 10.3069 20.6027 8.89484C22.0671 7.48279 23.636 4.86787 24.9435 2.20066L25.4665 0.945503C25.6234 0.579415 25.9895 0.317923 26.4079 0.317923H30.2779C31.0101 0.317923 31.5331 1.0501 31.2716 1.72998L30.8532 2.82824C30.8532 2.82824 29.4412 5.65235 27.9768 7.63968C26.5125 9.67932 26.1987 10.15 26.4079 10.673C26.617 11.196 30.3825 14.7 31.3239 16.3735C31.5854 16.8442 31.7946 17.2626 32.0038 17.6287C32.3699 18.3085 31.8469 19.1976 31.0624 19.1976H26.6693C26.3033 19.1976 25.9372 18.9884 25.7803 18.6746L25.3619 17.9947C25.3619 17.9947 22.6947 14.8568 21.0734 13.8632C19.3999 12.9218 19.4522 14.2816 19.4522 14.2816V17.0534C19.4522 18.2039 18.5108 19.1453 17.3603 19.1453H16.3143C16.3143 19.1453 10.5615 19.1453 5.95922 12.2942C2.35064 6.95981 1.14778 3.50812 0.729395 1.52078C0.624798 0.893204 1.09548 0.265625 1.77536 0.265625Z" fill="white"/>
</svg>
